<?xml version="1.0" encoding="utf-8"?>
<!-- Generator: Adobe Illustrator 16.0.0, SVG Export Plug-In . SVG Version: 6.00 Build 0)  -->
<!DOCTYPE svg PUBLIC "-//W3C//DTD SVG 1.1//EN" "http://www.w3.org/Graphics/SVG/1.1/DTD/svg11.dtd">
<svg version="1.1" id="Layer_1" xmlns="http://www.w3.org/2000/svg" xmlns:xlink="http://www.w3.org/1999/xlink" x="0px" y="0px"
	 width="187.087px" height="38.85px" viewBox="0 0 187.087 38.85" enable-background="new 0 0 187.087 38.85" xml:space="preserve">
<g>
	<polygon display="none" fill-rule="evenodd" clip-rule="evenodd" fill="#FFFFFF" points="-2.834,-76.953 189.921,-76.953 
		189.921,115.803 -2.834,115.803 -2.834,-76.953 	"/>
	<path fill-rule="evenodd" clip-rule="evenodd" fill="#ED1C24" d="M14.748,27.646c2.996,4.912,8.49,8.207,14.604,8.207
		c9.034,0,14.008-7.797,14.008-7.797l0,0l0.64,2.077l0,0c-4.182,5.439-11.654,8.716-20.014,8.716
		c-9.625,0-17.925-4.591-21.745-11.212C0.803,25.145,0,22.358,0,19.425C0,8.696,10.738,0,23.985,0c9.36,0,16.896,4.009,20.852,9.819
		l0,0l-15.706,9.404l8.963-13.763l0,0c-2.564-1.613-5.71-3.123-8.963-3.123c-9.195,0-16.768,7.673-16.768,16.868
		C12.364,22.286,13.238,25.181,14.748,27.646L14.748,27.646L14.748,27.646L14.748,27.646L14.748,27.646z"/>
	<path fill-rule="evenodd" clip-rule="evenodd" fill="#ED1C24" d="M56.801,27.642c-0.046,0.309-0.07,0.626-0.07,0.947
		c0,3.49,2.83,6.32,6.32,6.32s6.32-2.83,6.32-6.32c0-0.321-0.024-0.639-0.071-0.951c-0.457-3.037-3.081-5.369-6.25-5.369
		C59.882,22.269,57.258,24.601,56.801,27.642L56.801,27.642L56.801,27.642L56.801,27.642L56.801,27.642z M80.253,27.638
		l3.141,10.581H72.376l-2.167-7.246l0,0c-1.451,4.175-6.347,7.246-12.163,7.246c-6.959,0-12.601-4.396-12.601-9.817
		c0-0.254,0.013-0.507,0.037-0.764c0.495-5.062,5.931-9.055,12.564-9.055c3.765,0,7.144,1.287,9.453,3.326l0,0l-3.001-10.035H51.851
		l0,0c0,0,2.104-1.262,11.435-4.657c9.331-3.395,12.288,4.657,12.288,4.657l0,0L80.253,27.638L80.253,27.638L80.253,27.638
		L80.253,27.638z"/>
	<path fill-rule="evenodd" clip-rule="evenodd" fill="#ED1C24" d="M115.484,27.638v10.581h-11.34V27.638V14.972l0,0
		c0-1.71-1.385-3.098-3.096-3.098c-1.314,0-2.438,0.818-2.889,1.973l0,0v13.791v10.581H87.033V27.638V11.874h-6.49l0,0
		c0,0,9.028-5.469,12.159-5.469c2.967,0,5.163,2.279,5.438,5.183c4.365-2.355,8.695-5.183,11.674-5.183
		c3.078,0,5.584,2.453,5.67,5.511l0,0V27.638L115.484,27.638L115.484,27.638L115.484,27.638z"/>
	<path fill-rule="evenodd" clip-rule="evenodd" fill="#ED1C24" d="M132.949,27.638l1.578,5.216l0,0
		c0.029,2.235,1.867,4.023,4.121,4.023c2.305,0,4.174-1.868,4.174-4.173c0-0.163-0.01-0.324-0.027-0.482l0,0l-1.342-4.584
		l-4.711-16.099l0,0c-0.23-2.086-2-3.708-4.146-3.708c-2.127,0-4.154,1.987-4.414,4.042l0,0L132.949,27.638L132.949,27.638
		L132.949,27.638L132.949,27.638z M150.992,27.64c-2.146,6.511-8.279,11.21-15.51,11.21s-13.363-4.699-15.51-11.212
		c-0.531-1.607-0.818-3.328-0.818-5.116c0-9.018,7.311-16.328,16.328-16.328s16.328,7.31,16.328,16.328
		C151.81,24.31,151.523,26.03,150.992,27.64L150.992,27.64L150.992,27.64L150.992,27.64L150.992,27.64z"/>
	<path fill-rule="evenodd" clip-rule="evenodd" fill="#ED1C24" d="M169.765,27.638v10.581h-11.129V27.638V11.874h-6.223l0,0
		c0,0,8.762-5.469,11.893-5.469c2.967,0,5.162,2.279,5.438,5.183c4.367-2.355,8.695-5.183,11.674-5.183
		c3.08,0,5.584,2.453,5.67,5.511l0,0v15.722v10.581H175.75V27.638V14.972l0,0c0-1.71-1.387-3.098-3.098-3.098
		c-1.314,0-2.438,0.818-2.887,1.973l0,0V27.638L169.765,27.638L169.765,27.638L169.765,27.638z"/>
</g>
</svg>
